# xmcd CD database file
#
# Track frame offsets:
#	150
#	59571
#	137818
#	185277
#	204444
#
# Disc length: 2766 seconds
#
# Revision: 0
# Processed by: cddbd v1.5.1PL0 Copyright (c) Steve Scherf et al.
# Submitted via: CDex 1.50
#
DISCID=460acc05
DTITLE=Miles Davis Quintet - Live in Manchester [CD2]
DYEAR=2004
DGENRE=Jazz
TTITLE0=Well, You Needn't
TTITLE1=Autumn Leaves
TTITLE2=So What
TTITLE3=Stardust
TTITLE4=The Theme
EXTD=YEAR: 2004
EXTT0=
EXTT1=
EXTT2=
EXTT3=
EXTT4=
PLAYORDER=
